<?xml version="1.0" encoding="UTF-8"?>
<svg version="1.1" xmlns="http://www.w3.org/2000/svg" width="200" height="200">
<path d="M0 0 C66 0 132 0 200 0 C200 66 200 132 200 200 C134 200 68 200 0 200 C0 134 0 68 0 0 Z " fill="#FAFDFA" transform="translate(0,0)"/>
<path d="M0 0 C28.71 0 57.42 0 87 0 C87 28.71 87 57.42 87 87 C58.29 87 29.58 87 0 87 C0 58.29 0 29.58 0 0 Z " fill="#0A680C" transform="translate(105,9)"/>
<path d="M0 0 C28.71 0 57.42 0 87 0 C87 28.71 87 57.42 87 87 C58.29 87 29.58 87 0 87 C0 58.29 0 29.58 0 0 Z " fill="#09680B" transform="translate(9,9)"/>
<path d="M0 0 C28.38 0 56.76 0 86 0 C86 28.38 86 56.76 86 86 C57.62 86 29.24 86 0 86 C0 57.62 0 29.24 0 0 Z " fill="#046705" transform="translate(10,105)"/>
<path d="M0 0 C9.26401354 5.23857908 17.3765932 13.66874508 20.33984375 24.03125 C22.26611271 33.83771016 20.4209568 43.08533492 15.4921875 51.76171875 C9.68943979 60.08533228 1.66043081 65.14907744 -8.1875 67.4375 C-17.9077058 68.58518695 -25.94466031 67.35041114 -33.8515625 61.44921875 C-41.78814834 54.67151491 -47.56270439 47.38290231 -48.5234375 36.703125 C-48.77661825 25.63707328 -47.31396567 17.87094599 -40.125 9.1875 C-29.53764857 -1.65641083 -14.59369814 -5.81209891 0 0 Z " fill="#F7FCF7" transform="translate(160.1875,20.5625)"/>
<path d="M0 0 C28.05 0 56.1 0 85 0 C83.29716674 3.40566652 82.23393603 5.01563926 79.65318298 7.59405518 C78.96191818 8.28951447 78.27065338 8.98497375 77.55844116 9.70150757 C76.8004422 10.45388702 76.04244324 11.20626648 75.26147461 11.98144531 C74.46299606 12.7818222 73.66451752 13.5821991 72.84184265 14.40682983 C70.20020515 17.05217349 67.55143386 19.69024615 64.90234375 22.328125 C63.06877321 24.1605038 61.23557177 25.99325201 59.40272522 27.82635498 C55.56152677 31.66598897 51.71711241 35.50235734 47.86987305 39.3359375 C43.4164797 43.77357831 38.96836197 48.21645148 34.52320474 52.66234136 C30.24987789 56.93627749 25.97365397 61.20729886 21.69592476 65.47682953 C19.87355767 67.29600337 18.05180539 69.1157933 16.23066521 70.93619537 C13.69266454 73.4720411 11.15140665 76.00457403 8.60913086 78.53613281 C7.84910767 79.29660919 7.08908447 80.05708557 6.30603027 80.84060669 C5.27336281 81.86687668 5.27336281 81.86687668 4.21983337 82.91387939 C3.61865661 83.51338032 3.01747984 84.11288124 2.39808559 84.73054886 C1 86 1 86 0 86 C0 57.62 0 29.24 0 0 Z " fill="#369905" transform="translate(105,105)"/>
<path d="M0 0 C1.70304679 1.28654078 3.38198395 2.60803031 5 4 C4.43040847 7.62613199 3.07625466 9.25517741 0.4375 11.75 C-0.52349609 12.67039062 -0.52349609 12.67039062 -1.50390625 13.609375 C-1.99761719 14.06828125 -2.49132812 14.5271875 -3 15 C-5.41666667 13.79166667 -7.83333333 12.58333333 -10.25 11.375 C-16.54152233 9.06810848 -21.98839747 9.35248714 -28.109375 11.8828125 C-32.65705981 14.57008079 -36.03695027 19.14122984 -38 24 C-38.92470669 30.81362823 -38.6981386 36.66226773 -34.56640625 42.3125 C-30.27522103 46.93542273 -25.74711634 49.76317963 -19.375 50.3125 C-13.74923698 50.21925531 -8.54280533 48.31328846 -4.35546875 44.50390625 C-2.27600605 42.1008384 -1.00706983 40.0212095 0 37 C-6.27 37 -12.54 37 -19 37 C-19 32.38 -19 27.76 -19 23 C-7.45 23 4.1 23 16 23 C16 34.33955246 15.82725326 42.10388211 9 51 C8.443125 51.825 7.88625 52.65 7.3125 53.5 C0.90834979 60.42340563 -7.17610329 64.23350926 -16.50390625 65.28125 C-26.47318683 65.65568307 -34.65860844 62.72433494 -42 56 C-49.36508053 48.89065143 -53.11541081 40.13427243 -53.3125 29.9375 C-53.30056032 18.86411202 -49.98553843 12.16375284 -42.37109375 4.19921875 C-29.9487056 -7.32269975 -14.77591123 -7.62886721 0 0 Z " fill="#F6FBF5" transform="translate(72,24)"/>
<path d="M0 0 C3.44150143 1.76299501 6.36812177 3.80777867 9.38671875 6.22265625 C7.97827157 9.4378993 6.28327089 11.54449493 3.76171875 13.97265625 C3.13007812 14.58625 2.4984375 15.19984375 1.84765625 15.83203125 C1.36554688 16.2909375 0.8834375 16.74984375 0.38671875 17.22265625 C-0.12375 16.86171875 -0.63421875 16.50078125 -1.16015625 16.12890625 C-7.54319662 12.05462516 -13.11013313 10.94661065 -20.61328125 12.22265625 C-25.80413499 14.29055733 -29.53790433 17.54808333 -32.61328125 22.22265625 C-34.64478944 28.31718082 -34.43764262 35.55560476 -32.55078125 41.66015625 C-29.59906936 45.56403326 -26.02212476 49.0182345 -21.61328125 51.22265625 C-14.68583876 51.72020737 -8.63376334 52.08193964 -2.61328125 48.22265625 C-0.7265625 47.37890625 -0.7265625 47.37890625 1.38671875 47.22265625 C3.52734375 48.875 3.52734375 48.875 5.63671875 51.16015625 C6.343125 51.91167969 7.04953125 52.66320312 7.77734375 53.4375 C8.57398437 54.32115234 8.57398437 54.32115234 9.38671875 55.22265625 C8.02080817 58.48142769 6.70976674 60.01412015 3.69921875 61.84765625 C3.05597656 62.25242187 2.41273437 62.6571875 1.75 63.07421875 C-6.99183333 67.32231627 -17.80862849 68.06363529 -27.07421875 65.125 C-37.41095274 60.24304125 -43.33813316 53.76919927 -47.61328125 43.22265625 C-50.41429726 34.73040389 -49.43253367 23.83546478 -46.00390625 15.72265625 C-36.50662781 -1.35110275 -17.93830005 -7.48099509 0 0 Z " fill="#F6FBF6" transform="translate(68.61328125,115.77734375)"/>
<path d="M0 0 C4.69694981 3.0679921 7.32693999 6.49609932 9.75 11.5 C10.245 12.49 10.245 12.49 10.75 13.5 C11.5240825 20.3271539 10.85678839 25.88779065 6.75 31.5 C2.41141507 36.22727171 -1.90614664 39.06875102 -8.4140625 39.71484375 C-14.90390978 39.98615844 -18.93033242 38.54351668 -23.875 34.1875 C-24.65875 33.300625 -25.4425 32.41375 -26.25 31.5 C-27.013125 30.675 -27.77625 29.85 -28.5625 29 C-31.18181496 23.56734675 -31.08181506 18.41673667 -30.25 12.5 C-27.80710332 5.99253906 -22.89142389 1.5667541 -16.9375 -1.8125 C-10.56960013 -3.44149764 -5.8439463 -3.20502569 0 0 Z " fill="#046705" transform="translate(156.25,34.5)"/>
<path d="M0 0 C28.05 0 56.1 0 85 0 C83.11656068 3.76687864 82.30867531 4.79421646 79 7 C79.33 5.68 79.66 4.36 80 3 C54.26 2.67 28.52 2.34 2 2 C2 27.41 2 52.82 2 79 C3.65 79 5.3 79 7 79 C6.02433888 80.16959987 5.044375 81.33561177 4.0625 82.5 C3.24458984 83.47453125 3.24458984 83.47453125 2.41015625 84.46875 C1.94480469 84.9740625 1.47945313 85.479375 1 86 C0.67 86 0.34 86 0 86 C0 57.62 0 29.24 0 0 Z " fill="#3D9411" transform="translate(105,105)"/>
<path d="M0 0 C28.38 0 56.76 0 86 0 C86 28.38 86 56.76 86 86 C57.62 86 29.24 86 0 86 C0 57.62 0 29.24 0 0 Z M1 1 C1 28.39 1 55.78 1 84 C5.41339735 84.88267947 9.3663788 85.13571467 13.81958008 85.11352539 C14.60324542 85.11364593 15.38691076 85.11376646 16.19432354 85.11389065 C18.71942211 85.11314701 21.24444596 85.10554386 23.76953125 85.09765625 C25.33312952 85.09618513 26.89672829 85.09516547 28.46032715 85.09460449 C34.2443923 85.08937132 40.02844689 85.07541007 45.8125 85.0625 C58.744375 85.041875 71.67625 85.02125 85 85 C85 57.28 85 29.56 85 1 C57.28 1 29.56 1 1 1 Z " fill="#145F15" transform="translate(10,105)"/>
<path d="M0 0 C28.05 0 56.1 0 85 0 C84.34 1.32 83.68 2.64 83 4 C82.505 2.515 82.505 2.515 82 1 C55.27 1 28.54 1 1 1 C1 28.06 1 55.12 1 83 C1.66 83.33 2.32 83.66 3 84 C1.515 84.99 1.515 84.99 0 86 C0 57.62 0 29.24 0 0 Z " fill="#448725" transform="translate(105,105)"/>
<path d="M0 0 C10.78737929 0.10739009 21.57469009 0.22000064 32.3619442 0.33933926 C37.37050522 0.39458319 42.37907207 0.44800555 47.38769531 0.49731445 C52.21822939 0.5449363 57.04869106 0.59727832 61.87913895 0.65294075 C63.72516713 0.67337419 65.57121519 0.69208562 67.41727829 0.70907402 C69.99619502 0.73309615 72.57497422 0.76315364 75.15380859 0.79467773 C75.92272934 0.8004332 76.69165009 0.80618866 77.48387146 0.81211853 C82.77189568 0.88594784 82.77189568 0.88594784 85 2 C84.67 2.66 84.34 3.32 84 4 C55.95 3.67 27.9 3.34 -1 3 C-0.67 2.01 -0.34 1.02 0 0 Z " fill="#D9F4CA" transform="translate(106,102)"/>
<path d="M0 0 C0.66 0.33 1.32 0.66 2 1 C1.48050781 1.4125 0.96101563 1.825 0.42578125 2.25 C-6.30981741 7.8277231 -10.68459404 13.47602762 -13 22 C-13.18620418 24.69174571 -13.28048699 27.25210472 -13.25 29.9375 C-13.26160156 30.95360352 -13.26160156 30.95360352 -13.2734375 31.99023438 C-13.25530014 36.71954982 -12.45941364 40.5580545 -11 45 C-11.66 45 -12.32 45 -13 45 C-15.56257937 40.48704851 -15.38337535 36.46023224 -15.375 31.375 C-15.37483887 30.47579834 -15.37467773 29.57659668 -15.37451172 28.65014648 C-15.26015355 22.01075171 -14.18448191 16.86920936 -11 11 C-10.7215625 10.15953125 -10.443125 9.3190625 -10.15625 8.453125 C-8.723272 5.41288788 -7.21478954 4.43194214 -4.375 2.6875 C-3.55773437 2.17574219 -2.74046875 1.66398437 -1.8984375 1.13671875 C-1.27195312 0.76160156 -0.64546875 0.38648437 0 0 Z " fill="#1C651F" transform="translate(126,23)"/>
<path d="M0 0 C2.63089382 1.31544691 2.8112448 2.32390701 3.8125 5.0625 C6.08925412 12.92868548 3.95609067 21.89930786 1.07421875 29.4140625 C0 31 0 31 -3 32 C-2.79503906 31.32453125 -2.59007812 30.6490625 -2.37890625 29.953125 C-1.97478516 28.61507812 -1.97478516 28.61507812 -1.5625 27.25 C-1.29566406 26.36828125 -1.02882812 25.4865625 -0.75390625 24.578125 C-0.38072266 23.30195312 -0.38072266 23.30195312 0 22 C0.19464844 21.34128906 0.38929688 20.68257812 0.58984375 20.00390625 C1.91747446 13.5174819 1.1497521 6.46735556 0 0 Z " fill="#116213" transform="translate(179,40)"/>
<path d="M0 0 C0.33 0.99 0.66 1.98 1 3 C-1.40428839 5.49143267 -3.82540014 7.96584229 -6.25 10.4375 C-6.93191406 11.14455078 -7.61382812 11.85160156 -8.31640625 12.58007812 C-8.98027344 13.25361328 -9.64414063 13.92714844 -10.328125 14.62109375 C-10.9355957 15.2442749 -11.54306641 15.86745605 -12.16894531 16.50952148 C-14.13505077 18.10993133 -15.5224311 18.59584059 -18 19 C-12.44964797 12.21623641 -6.23557973 6.14477032 0 0 Z " fill="#F3FEEE" transform="translate(146,150)"/>
<path d="M0 0 C1.05445312 -0.00515625 2.10890625 -0.0103125 3.1953125 -0.015625 C5.875 0.25 5.875 0.25 7.875 2.25 C6.42867187 2.30607422 6.42867187 2.30607422 4.953125 2.36328125 C3.68984375 2.42902344 2.4265625 2.49476563 1.125 2.5625 C-0.12796875 2.62050781 -1.3809375 2.67851562 -2.671875 2.73828125 C-6.22997491 3.26555624 -7.4862391 3.9470814 -10.125 6.25 C-12.875 6.9375 -12.875 6.9375 -15.125 7.25 C-10.12244163 1.96952172 -7.33569221 -0.03604763 0 0 Z " fill="#266C28" transform="translate(54.125,126.75)"/>
<path d="M0 0 C0.66 0 1.32 0 2 0 C1.83886719 0.67417969 1.67773438 1.34835938 1.51171875 2.04296875 C0.02810721 10.61620491 0.29698622 19.72202031 3 28 C2.34 28.33 1.68 28.66 1 29 C1 27.68 1 26.36 1 25 C0.34 25 -0.32 25 -1 25 C-1.22634311 21.5842767 -1.42792113 18.16752678 -1.625 14.75 C-1.68945312 13.78191406 -1.75390625 12.81382813 -1.8203125 11.81640625 C-1.871875 10.88183594 -1.9234375 9.94726562 -1.9765625 8.984375 C-2.02893066 8.12553711 -2.08129883 7.26669922 -2.13525391 6.38183594 C-1.9870078 3.77120603 -1.32298482 2.23056144 0 0 Z " fill="#1F6522" transform="translate(19,41)"/>
<path d="M0 0 C0.66 0.66 1.32 1.32 2 2 C-4.33773468 3.53332291 -10.50149789 4.48446121 -17 5 C-12.19721712 -0.00861643 -6.77450158 -0.90504147 0 0 Z " fill="#2C742D" transform="translate(151,32)"/>
<path d="M0 0 C-1.50413223 3.76033058 -1.50413223 3.76033058 -3.875 4.90625 C-6.30502482 6.15699807 -7.53212436 7.51669808 -9.25 9.625 C-9.77078125 10.25664063 -10.2915625 10.88828125 -10.828125 11.5390625 C-11.21484375 12.02117188 -11.6015625 12.50328125 -12 13 C-12.66 12.67 -13.32 12.34 -14 12 C-3.89320388 0 -3.89320388 0 0 0 Z " fill="#E2F7E3" transform="translate(38,23)"/>
<path d="M0 0 C-5.0602407 3.56516958 -8.41981084 5.13553139 -14.5625 5.1875 C-15.70912109 5.20876953 -15.70912109 5.20876953 -16.87890625 5.23046875 C-19 5 -19 5 -22 3 C-20.87851563 3.01740234 -20.87851563 3.01740234 -19.734375 3.03515625 C-18.74953125 3.04417969 -17.7646875 3.05320312 -16.75 3.0625 C-15.77546875 3.07410156 -14.8009375 3.08570312 -13.796875 3.09765625 C-11.31862574 3.0111252 -9.32383005 2.84745178 -7 2 C-6.67 1.34 -6.34 0.68 -6 0 C-3 -1 -3 -1 0 0 Z " fill="#307032" transform="translate(160,69)"/>
<path d="M0 0 C6.27 0 12.54 0 19 0 C18.04065919 3.83736322 17.76390737 4.59660228 15 7 C14.67 6.01 14.34 5.02 14 4 C14.66 4 15.32 4 16 4 C16 3.01 16 2.02 16 1 C10.72 1 5.44 1 0 1 C0 0.67 0 0.34 0 0 Z " fill="#205F20" transform="translate(53,61)"/>
<path d="M0 0 C0.33 0.66 0.66 1.32 1 2 C0.34 2 -0.32 2 -1 2 C-1.226875 2.53625 -1.45375 3.0725 -1.6875 3.625 C-3.45570089 6.82460161 -5.53670203 9.29037223 -8 12 C-8.66 12 -9.32 12 -10 12 C-10 12.66 -10 13.32 -10 14 C-10.66 13.67 -11.32 13.34 -12 13 C-4.88610478 3.40546697 -4.88610478 3.40546697 0 0 Z " fill="#DCF3DD" transform="translate(127,24)"/>
<path d="M0 0 C-1.05078125 1.48828125 -1.05078125 1.48828125 -3 3 C-6.35546875 3.29296875 -6.35546875 3.29296875 -10.1875 3.1875 C-11.45980469 3.16042969 -12.73210937 3.13335937 -14.04296875 3.10546875 C-15.01878906 3.07066406 -15.99460938 3.03585938 -17 3 C-17.33 2.01 -17.66 1.02 -18 0 C-17.18015625 0.01160156 -16.3603125 0.02320312 -15.515625 0.03515625 C-13.89914063 0.04869141 -13.89914063 0.04869141 -12.25 0.0625 C-11.18265625 0.07410156 -10.1153125 0.08570312 -9.015625 0.09765625 C-6.09883173 0.10936547 -6.09883173 0.10936547 -3.734375 -0.56640625 C-2 -1 -2 -1 0 0 Z " fill="#EBF9E7" transform="translate(156,73)"/>
<path d="M0 0 C0.66 0 1.32 0 2 0 C2.2475 0.61875 2.495 1.2375 2.75 1.875 C4.23954094 4.4072196 5.37581048 4.80718658 8 6 C9.75 7.5 9.75 7.5 11 9 C11 9.66 11 10.32 11 11 C5.84563204 9.63560848 2.93351599 6.27426385 0 2 C0 1.34 0 0.68 0 0 Z " fill="#1A651B" transform="translate(35,62)"/>
<path d="M0 0 C2.97 0.495 2.97 0.495 6 1 C5.04367001 2.29315061 4.08486149 3.58446853 3.125 4.875 C2.59132813 5.59429687 2.05765625 6.31359375 1.5078125 7.0546875 C0 9 0 9 -2 11 C-1.40049704 7.31733897 -0.75241109 3.65456815 0 0 Z " fill="#126213" transform="translate(25,120)"/>
<path d="M0 0 C0.33 0 0.66 0 1 0 C1 4.62 1 9.24 1 14 C0.01 14.33 -0.98 14.66 -2 15 C-2.66 14.34 -3.32 13.68 -4 13 C-3.525625 12.525625 -3.05125 12.05125 -2.5625 11.5625 C-0.31923904 7.88355203 -0.26260422 4.2378888 0 0 Z " fill="#0C600C" transform="translate(52,47)"/>
<path d="M0 0 C0.66 0.33 1.32 0.66 2 1 C1.125 4.875 1.125 4.875 0 6 C-0.07258946 8.18639453 -0.08373783 10.37500389 -0.0625 12.5625 C-0.05347656 13.76003906 -0.04445313 14.95757812 -0.03515625 16.19140625 C-0.02355469 17.11824219 -0.01195313 18.04507813 0 19 C-2 17 -2 17 -2.265625 14.1015625 C-2.26046875 12.95429687 -2.2553125 11.80703125 -2.25 10.625 C-2.25515625 9.48289062 -2.2603125 8.34078125 -2.265625 7.1640625 C-2.01510533 4.17993117 -1.55829924 2.51059322 0 0 Z " fill="#226C24" transform="translate(128,43)"/>
<path d="M0 0 C3.125 0.375 3.125 0.375 6 1 C1.33158223 4.11227851 -2.17597138 4.11824029 -7.75 4.0625 C-8.92046875 4.05347656 -10.0909375 4.04445313 -11.296875 4.03515625 C-12.18890625 4.02355469 -13.0809375 4.01195313 -14 4 C-14 3.67 -14 3.34 -14 3 C-13.15695313 2.95101562 -12.31390625 2.90203125 -11.4453125 2.8515625 C-10.34960938 2.77679688 -9.25390625 2.70203125 -8.125 2.625 C-6.48917969 2.52058594 -6.48917969 2.52058594 -4.8203125 2.4140625 C-1.86953526 2.26746509 -1.86953526 2.26746509 0 0 Z " fill="#DBEFD9" transform="translate(153,84)"/>
<path d="M0 0 C1.8871875 0.061875 1.8871875 0.061875 3.8125 0.125 C3.4375 2.5625 3.4375 2.5625 2.8125 5.125 C1.8225 5.62 1.8225 5.62 0.8125 6.125 C1.1425 4.805 1.4725 3.485 1.8125 2.125 C-1.1575 2.125 -4.1275 2.125 -7.1875 2.125 C-4.09861478 0.06574319 -3.47814073 -0.1140374 0 0 Z " fill="#419818" transform="translate(183.1875,105.875)"/>
<path d="M0 0 C0.33 0.66 0.66 1.32 1 2 C-0.63412443 3.70840281 -1.86906094 4.93453047 -4 6 C-6.3329866 6.04022391 -8.66706666 6.04320247 -11 6 C-8.61542052 4.41028035 -6.3695876 3.13258407 -3.8125 1.875 C-3.09707031 1.52179688 -2.38164063 1.16859375 -1.64453125 0.8046875 C-1.10183594 0.53914063 -0.55914062 0.27359375 0 0 Z " fill="#236C26" transform="translate(73,82)"/>
<path d="M0 0 C0.66 0 1.32 0 2 0 C1.609375 6.0546875 1.609375 6.0546875 1 8 C-0.98 8.99 -0.98 8.99 -3 10 C-2.01 6.7 -1.02 3.4 0 0 Z " fill="#246B27" transform="translate(179,62)"/>
<path d="M0 0 C2.12038635 2.61514317 4.13091744 5.19637616 6 8 C5.01 8.495 5.01 8.495 4 9 C2 7.875 2 7.875 0 6 C-0.25 2.8125 -0.25 2.8125 0 0 Z " fill="#1C6A1D" transform="translate(115,69)"/>
<path d="M0 0 C0.33 0 0.66 0 1 0 C1.1799928 5.21979128 0.97094808 9.07262981 -1 14 C-1.33 14 -1.66 14 -2 14 C-2.1799928 8.78020872 -1.97094808 4.92737019 0 0 Z " fill="#D4EDD6" transform="translate(114,39)"/>
<path d="M0 0 C0.66 0.33 1.32 0.66 2 1 C-0.06029645 4.09044468 -0.82606287 4.51221697 -4 6 C-4.66 6.66 -5.32 7.32 -6 8 C-6.66 7.34 -7.32 6.68 -8 6 C-5.36 4.02 -2.72 2.04 0 0 Z " fill="#E5F6E2" transform="translate(38,116)"/>
<path d="M0 0 C7.71428571 4 7.71428571 4 9 8 C5.75728494 7.4409112 4.06942576 6.5867822 2 4 C2 3.34 2 2.68 2 2 C1.34 2 0.68 2 0 2 C0 1.34 0 0.68 0 0 Z " fill="#226823" transform="translate(154,34)"/>
<path d="M0 0 C2.62187494 1.04874998 3.79371361 1.64931313 5.25 4.125 C5.4975 4.74375 5.745 5.3625 6 6 C5.01 7.485 5.01 7.485 4 9 C2.68 8.67 1.36 8.34 0 8 C0.99 7.34 1.98 6.68 3 6 C2.690625 5.38125 2.38125 4.7625 2.0625 4.125 C1.375 2.75 0.6875 1.375 0 0 Z " fill="#1A651B" transform="translate(74,167)"/>
<path d="M0 0 C1.32 0.33 2.64 0.66 4 1 C4 2.98 4 4.96 4 7 C2.02 7.66 0.04 8.32 -2 9 C-0.35 6.69 1.3 4.38 3 2 C2.01 1.67 1.02 1.34 0 1 C0 0.67 0 0.34 0 0 Z " fill="#216C26" transform="translate(75,120)"/>
<path d="M0 0 C2.5 2.3125 2.5 2.3125 5 5 C5 5.99 5 6.98 5 8 C3.68 7.67 2.36 7.34 1 7 C0.67 4.69 0.34 2.38 0 0 Z " fill="#1D671A" transform="translate(25,74)"/>
<path d="M0 0 C2.64 0 5.28 0 8 0 C8 0.66 8 1.32 8 2 C8.99 2.33 9.98 2.66 11 3 C10.34 3.66 9.68 4.32 9 5 C4.545 3.02 4.545 3.02 0 1 C0 0.67 0 0.34 0 0 Z " fill="#216D23" transform="translate(155,19)"/>
<path d="M0 0 C0.99 0.33 1.98 0.66 3 1 C0.69 3.31 -1.62 5.62 -4 8 C-4.33 7.01 -4.66 6.02 -5 5 C-4.01 4.67 -3.02 4.34 -2 4 C-0.79117904 1.99983534 -0.79117904 1.99983534 0 0 Z " fill="#5B9B35" transform="translate(157,136)"/>
<path d="M0 0 C0.33 1.32 0.66 2.64 1 4 C0.01 4.495 0.01 4.495 -1 5 C-1.72159424 6.64363134 -2.39351421 8.31050386 -3 10 C-3.66 10 -4.32 10 -5 10 C-3.84414715 6.08788267 -2.64465038 3.1254959 0 0 Z " fill="#D2EACC" transform="translate(27,125)"/>
<path d="M0 0 C2.3125 0.1875 2.3125 0.1875 4 1 C1.06171403 3.50298434 -1.17902761 4.46930939 -5 5 C-2.75 2.4375 -2.75 2.4375 0 0 Z " fill="#1E671D" transform="translate(44,129)"/>
<path d="M0 0 C3.96 0 7.92 0 12 0 C11.34 1.32 10.68 2.64 10 4 C9.67 3.01 9.34 2.02 9 1 C6.03 1 3.06 1 0 1 C0 0.67 0 0.34 0 0 Z " fill="#4D902B" transform="translate(178,105)"/>
<path d="M0 0 C1.98 0 3.96 0 6 0 C6.33 0.99 6.66 1.98 7 3 C7.99 3.33 8.98 3.66 10 4 C5.66905042 4 3.72965139 3.03435531 0 1 C0 0.67 0 0.34 0 0 Z " fill="#DAF1D5" transform="translate(60,34)"/>
</svg>
