<svg xmlns="http://www.w3.org/2000/svg" version="1.0" viewBox="461 214.8 387.6 348.5" style="fill:#fefefe" width="388" height="349">
  <path d="M530.131 265.186q-6.2 5.142-11.422 11.036 2.509-2.587 5.198-5.194 2.36-2.304 6.224-5.842m-16.839 3.258q-4.21 3.768-7.468 7.16-3.26 3.394-5.824 6.556 5.808-6.564 13.292-13.716m291.446 81.583-.068.737-.018.743.04.75.104.76.177.773.255.786.342.804.434.823.534.845.64.868.755.895.875.923q-1.736-4.33-4.07-9.707M641.865 214.759l-2.337.016q-73.303 3.173-126.136 53.58 55.485-48.65 124.543-50.08 35.976.248 61.282 10.862 37.847 15.156 60.505 36.436 16.485 15.46 24.56 27.447-20.288-28.573-61.353-49.357-44.652-20.52-87.18-20.513-57.513-1.13-105.556 41.985 49.605-39.593 110.902-35.12 71.248 6.453 119.584 51.02 26.336 24.88 44.061 68.978 3.418-11.203 1.942-13.464 7.04 21.1 8.357 43.806 4.762 64.201-40.166 121.005 73.72-83.274 29.85-185.639-23.881-48.865-62.724-71.43-48.574-29.075-100.134-29.532m132.95 286.663-1.236 1.332q-5.592 6.043-11.988 12.221l2.888-2.31.63-.53q.27-.187 2.187-2.079 1.603-1.626 3.506-3.807l1.957-2.298zm-256.17-225.134-3.041 3.203q-51.862 58.14-46.228 130.544-8.34-31.13.874-65.123 8.895-35.956 29.692-62.681-34.434 39.519-37.796 101.197-.097 11.129 3.716 27.88 13.435 47.687 15.719 50.616 14.816 33.732 34.885 52.393 25.637 23.991 56.467 36.012 31.114 12.916 58.959 12.41 39.828-.865 74.875-11.886 25.447-9.077 54.787-35.842-30.358 24.195-52.204 30.955-40.893 11.24-75.492 10.7-21.697 1.509-61.803-15.754-29.295-12.815-48.382-31.643-15.256-15.3-23.185-28.554 23.623 28.353 68.548 54.124 21.59 12.03 42.997 17.246 5.507 1.254 6.223.904.39-.127-.074-.542.943.657 2.833-1.236 1.591-1.93 2.081-3.795-28.352-.662-87.355-38.689-33.672-25.136-50.684-58.981-16.105-38.528-6.944-91.468 6.732-41.085 40.533-81.99" style="fill:inherit"/>
</svg>
